<?xml version="1.0" encoding="UTF-8" standalone="no"?>
<svg
   version="1.1"
   viewBox="0 0 440 440"
   width="440"
   height="440"
   id="svg26"
   sodipodi:docname="logo.svg"
   inkscape:version="1.2.2 (b0a84865, 2022-12-01)"
   xmlns:inkscape="http://www.inkscape.org/namespaces/inkscape"
   xmlns:sodipodi="http://sodipodi.sourceforge.net/DTD/sodipodi-0.dtd"
   xmlns="http://www.w3.org/2000/svg"
   xmlns:svg="http://www.w3.org/2000/svg">
  <sodipodi:namedview
     id="namedview28"
     pagecolor="#ffffff"
     bordercolor="#000000"
     borderopacity="0.25"
     inkscape:showpageshadow="2"
     inkscape:pageopacity="0.0"
     inkscape:pagecheckerboard="0"
     inkscape:deskcolor="#d1d1d1"
     showgrid="false"
     inkscape:zoom="1.0460176"
     inkscape:cx="156.30712"
     inkscape:cy="204.58546"
     inkscape:window-width="1512"
     inkscape:window-height="916"
     inkscape:window-x="0"
     inkscape:window-y="38"
     inkscape:window-maximized="0"
     inkscape:current-layer="g458" />
  <!-- svg-source:excalidraw -->
  <defs
     id="defs4">
    <style
       class="style-fonts"
       id="style2">
      @font-face {
        font-family: &quot;Virgil&quot;;
        src: url(&quot;https://excalidraw.com/Virgil.woff2&quot;);
      }
      @font-face {
        font-family: &quot;Cascadia&quot;;
        src: url(&quot;https://excalidraw.com/Cascadia.woff2&quot;);
      }
    </style>
  </defs>
  <g
     id="g458"
     transform="translate(4.4519577,32.176803)">
    <rect
       style="fill:#ffffff;stroke-width:2.44721"
       id="rect263"
       width="440"
       height="440"
       x="-4.4519577"
       y="-32.176804"
       ry="97.088005" />
    <g
       id="g470"
       transform="translate(30,20)">
      <g
         transform="translate(14.836889,131.8761)"
         stroke="none"
         id="g8">
        <path
           fill="#1e1e1e"
           d="m 10.36,0 q 0,0 0.17,3.14 0.17,3.14 0.49,8.15 0.33,5.02 0.42,10.13 0.08,5.11 0.34,9.6 0.25,4.49 0.49,10.35 0.24,5.86 0.39,10.58 0.15,4.72 0.3,9.57 0.15,4.85 0.28,9.58 0.13,4.73 0.23,10.09 0.1,5.36 0.72,10.55 0.61,5.18 1.63,10.85 1.01,5.66 2.09,11.77 1.07,6.1 1.99,11.12 0.92,5.02 1.99,9.44 1.07,4.41 2.78,9.02 1.7,4.62 3.97,8.68 2.28,4.06 6.29,7.26 4.01,3.2 8.34,4.35 4.33,1.16 8.95,1.95 4.62,0.78 9.07,1.69 4.46,0.91 9.3,1.82 4.84,0.92 9.83,1.53 4.99,0.61 10.25,1.21 5.26,0.61 10.61,0.82 5.36,0.22 10.54,0.25 5.19,0.03 10.63,0.06 5.44,0.03 11.47,0.07 6.03,0.04 11.46,0.05 5.44,0.02 11.1,0.04 5.66,0.02 11.18,-0.1 5.51,-0.12 11.33,-0.76 5.82,-0.65 10.16,-1.13 4.34,-0.48 8.93,-1.45 4.58,-0.98 8.8,-1.66 4.22,-0.68 9.09,-2.27 4.87,-1.59 9.17,-3.2 4.3,-1.62 8.56,-3.78 4.26,-2.16 7.65,-4.89 3.39,-2.73 5.65,-6.33 2.26,-3.6 3.91,-8.05 1.66,-4.45 2.8,-10.14 1.14,-5.69 1.94,-11.11 0.8,-5.41 1.39,-11.2 0.59,-5.78 0.84,-10.35 0.25,-4.57 0.4,-9.25 0.15,-4.68 0.14,-10.01 -0.01,-5.33 -0.51,-9.74 -0.5,-4.42 -1.21,-9.7 -0.72,-5.28 -1.02,-10.41 -0.31,-5.13 -0.58,-10.53 -0.28,-5.4 -0.44,-10.9 -0.16,-5.5 -0.42,-10.62 -0.26,-5.12 -1.1,-9.61 -0.84,-4.48 -1.6,-7.1 -0.76,-2.62 -0.76,-5.04 0.01,-2.43 0.79,-4.72 0.79,-2.29 2.26,-4.21 1.47,-1.93 3.48,-3.28 2.01,-1.35 4.35,-1.99 2.33,-0.64 4.75,-0.5 2.42,0.14 4.67,1.04 2.24,0.91 4.08,2.48 1.84,1.58 3.08,3.66 1.25,2.08 1.76,4.45 0.51,2.36 0.24,4.77 -0.27,2.41 -1.3,4.59 -1.02,2.2 -2.69,3.95 -1.68,1.75 -3.82,2.88 -2.15,1.12 -4.54,1.51 -2.39,0.38 -4.78,-0.02 -2.39,-0.4 -4.52,-1.54 -2.14,-1.15 -3.8,-2.91 -1.66,-1.77 -2.66,-3.97 -1.01,-2.19 -1.27,-4.6 -0.25,-2.41 0.28,-4.77 0.53,-2.37 1.79,-4.44 1.25,-2.07 3.11,-3.63 1.85,-1.56 4.1,-2.45 2.26,-0.88 4.67,-1.01 2.42,-0.12 4.75,0.54 2.34,0.66 4.34,2.02 2,1.37 3.45,3.3 1.46,1.94 2.23,4.24 0.76,2.29 0.76,2.29 0,0 1.02,4.18 1.02,4.18 1.57,9.17 0.54,4.99 0.75,9.62 0.2,4.63 0.36,10.19 0.15,5.56 0.44,11.43 0.29,5.87 0.6,11.22 0.3,5.35 1.03,10.41 0.73,5.07 1.06,11.61 0.32,6.54 0.25,12.05 -0.07,5.51 -0.42,10.96 -0.34,5.45 -0.66,11.36 -0.31,5.91 -0.88,12.57 -0.56,6.66 -1.36,12.11 -0.81,5.45 -1.81,10.26 -1.01,4.8 -3.11,10.6 -2.1,5.8 -4.84,10.63 -2.73,4.83 -5.74,8.61 -3.02,3.78 -6.46,6.7 -3.44,2.93 -8.23,5.97 -4.8,3.04 -9.19,5.11 -4.4,2.07 -9.12,3.94 -4.72,1.88 -9.44,3.53 -4.72,1.65 -10.39,2.84 -5.67,1.18 -10.03,1.95 -4.36,0.76 -9.47,1.51 -5.11,0.74 -10.72,1.38 -5.62,0.63 -10.48,1.07 -4.87,0.43 -10.81,0.47 -5.94,0.05 -11.56,0.07 -5.62,0.02 -11.12,0.04 -5.51,0.02 -11.56,0.06 -6.05,0.04 -11.33,0.06 -5.28,0.02 -10.6,0.02 -5.32,0.01 -10.92,-0.32 -5.6,-0.33 -10.79,-0.92 -5.19,-0.6 -10.25,-1.24 -5.07,-0.64 -9.83,-1.49 -4.77,-0.85 -9.06,-1.76 -4.29,-0.9 -8.9,-1.75 -4.6,-0.86 -9.2,-1.76 -4.6,-0.91 -9.11,-2.67 -4.51,-1.76 -8.37,-4.21 -3.86,-2.44 -8.03,-6.25 -4.17,-3.81 -7.11,-7.83 -2.94,-4.01 -5.12,-8.67 -2.16,-4.65 -3.86,-9.23 -1.69,-4.57 -2.87,-9.2 -1.18,-4.64 -2.09,-9.39 -0.92,-4.74 -1.85,-10.19 -0.92,-5.45 -1.97,-11.56 -1.05,-6.1 -2.02,-11.99 -0.98,-5.89 -1.32,-11.34 -0.34,-5.45 -0.23,-10.81 0.1,-5.36 0.23,-10.09 0.12,-4.73 0.28,-9.58 0.15,-4.85 0.3,-9.57 0.15,-4.72 0.39,-10.59 0.23,-5.86 0.51,-10.55 0.29,-4.69 0.92,-9.98 0.63,-5.29 1.06,-9.92 0.42,-4.63 0.59,-7.77 0.17,-3.14 0.32,-4.37 0.15,-1.24 0.6,-2.41 0.44,-1.17 1.15,-2.2 0.71,-1.03 1.64,-1.85 0.94,-0.83 2.04,-1.41 1.11,-0.58 2.32,-0.88 1.22,-0.3 2.46,-0.3 1.24,0 2.46,0.3 1.21,0.3 2.32,0.88 1.1,0.58 2.04,1.41 0.93,0.82 1.64,1.85 0.71,1.03 1.15,2.2 0.45,1.17 0.6,2.41 Q 10.36,0 10.36,0 Z"
           id="path6" />
      </g>
      <g
         transform="translate(303.32126,145.86047)"
         stroke="none"
         id="g12">
        <path
           fill="#1e1e1e"
           d="m 0.53,-10.46 q 0,0 3.8,0.05 3.79,0.06 8.43,0.35 4.64,0.29 9.94,1.42 5.31,1.13 9.88,2.47 4.57,1.33 8.55,2.98 3.98,1.65 8.13,3.93 4.14,2.29 7.6,5.27 3.46,2.98 6.74,6.14 3.28,3.16 6.8,7.12 3.52,3.97 6.9,8.66 3.37,4.68 5.86,10.57 2.49,5.88 3.48,12.29 0.99,6.41 1.12,11.19 0.13,4.78 -0.88,10.1 -1.01,5.31 -2.98,9.52 -1.96,4.21 -4.57,7.81 -2.61,3.6 -6.03,7.12 -3.41,3.52 -7.91,6.94 -4.5,3.42 -8.56,6.11 -4.06,2.69 -8.93,5.52 -4.88,2.84 -10.33,5.33 -5.44,2.49 -9.52,4.14 -4.08,1.65 -9.03,3.47 -4.95,1.82 -9.16,2.65 -4.21,0.82 -8.96,0.93 -4.73,0.11 -7.08,-0.28 -2.36,-0.38 -4.46,-1.49 -2.1,-1.12 -3.74,-2.85 -1.64,-1.73 -2.64,-3.89 -1,-2.16 -1.26,-4.53 -0.26,-2.37 0.25,-4.69 0.51,-2.33 1.74,-4.37 1.23,-2.04 3.04,-3.58 1.82,-1.55 4.03,-2.43 2.21,-0.88 4.59,-1.01 2.38,-0.13 4.66,0.51 2.3,0.63 4.27,1.97 1.97,1.34 3.42,3.23 1.44,1.9 2.2,4.16 0.76,2.25 0.76,4.63 0,2.39 -0.76,4.64 -0.76,2.26 -2.2,4.16 -1.44,1.89 -3.41,3.23 -1.97,1.34 -4.27,1.98 -2.28,0.63 -4.66,0.5 -2.38,-0.12 -4.59,-1.01 -2.22,-0.88 -4.03,-2.42 -1.82,-1.54 -3.05,-3.58 -1.23,-2.04 -1.74,-4.37 -0.51,-2.32 -0.25,-4.69 0.26,-2.37 1.26,-4.53 1,-2.16 2.63,-3.89 1.64,-1.73 3.75,-2.85 2.1,-1.11 4.45,-1.5 2.35,-0.39 2.35,-0.39 0,0 5.73,-0.32 5.74,-0.32 10.34,-2.09 4.59,-1.77 8.54,-3.46 3.94,-1.68 8.11,-3.84 4.16,-2.16 7.85,-4.55 3.69,-2.4 8.32,-5.74 4.64,-3.34 8.49,-7.64 3.84,-4.31 4.65,-8.71 0.82,-4.4 0.46,-9.03 -0.36,-4.63 -2.45,-9.16 -2.1,-4.52 -4.7,-7.91 -2.6,-3.39 -6.03,-7.23 -3.44,-3.85 -7.55,-7.47 -4.12,-3.62 -8,-5.7 Q 26.04,17.35 21.01,15.38 15.97,13.41 11.49,12.27 7.01,11.13 3.24,10.8 -0.53,10.46 -1.78,10.25 -3.02,10.03 -4.18,9.52 -5.33,9.01 -6.34,8.24 -7.34,7.47 -8.13,6.49 -8.91,5.5 -9.44,4.35 -9.97,3.2 -10.21,1.96 q -0.24,-1.24 -0.18,-2.49 0.07,-1.26 0.43,-2.47 0.37,-1.21 1.01,-2.3 0.65,-1.08 1.53,-1.98 0.89,-0.91 1.96,-1.57 1.08,-0.66 2.28,-1.05 1.2,-0.39 2.46,-0.47 1.25,-0.09 1.25,-0.09 z"
           id="path10" />
      </g>
      <g
         stroke-opacity="0.5"
         fill-opacity="0.5"
         transform="translate(25.172826,156.86438)"
         stroke="none"
         id="g16">
        <path
           fill="#2f9e44"
           d="m 10.31,0 q 0,0 0.16,3.44 0.17,3.44 0.47,7.76 0.29,4.31 0.65,8.91 0.35,4.6 0.67,9.36 0.31,4.76 0.59,9.48 0.27,4.71 0.74,9.96 0.47,5.25 1.15,10.25 0.69,4.99 1.47,9.74 0.78,4.75 1.94,9.64 1.16,4.89 2.32,8.99 1.16,4.1 2.75,8.37 1.59,4.27 4.41,8.06 2.82,3.8 7.06,6.52 4.24,2.72 8.44,5.52 4.19,2.81 8.34,5.21 4.14,2.41 8.59,4.23 4.45,1.81 8.72,2.56 4.27,0.76 9.37,1.33 5.1,0.57 10.52,1.06 5.42,0.48 11.07,0.73 5.65,0.24 11.31,0.29 5.66,0.05 11.46,0.09 5.8,0.04 11.3,0.06 5.51,0.02 10.12,-0.06 4.62,-0.07 9.73,-0.3 5.12,-0.23 9.91,-0.48 4.8,-0.24 9.88,-0.54 5.09,-0.3 9.92,-1.16 4.83,-0.85 9.29,-2.01 4.45,-1.16 8.22,-3.26 3.78,-2.09 6.9,-6.11 3.11,-4.01 5.09,-7.83 1.97,-3.82 3.19,-8.63 1.23,-4.81 2.27,-9.88 1.05,-5.06 2.07,-9.53 1.02,-4.48 1.88,-9.68 0.87,-5.2 2.02,-10.86 1.15,-5.67 2.01,-11.32 0.86,-5.65 1.37,-10.63 0.51,-4.98 1.04,-9.27 0.53,-4.29 0.66,-8.62 0.14,-4.33 5.05,-1.65 4.91,2.68 -0.04,2.4 -4.94,-0.29 -9.42,-1 -4.48,-0.72 -8.95,-0.95 -4.48,-0.22 -9.53,-0.31 -5.04,-0.09 -9.98,-0.16 -4.93,-0.07 -10.18,-0.08 -5.25,-0.01 -10.42,-0.02 -5.17,-0.01 -9.59,-0.04 -4.42,-0.04 -9.37,0.02 -4.96,0.06 -10.5,0.4 -5.54,0.35 -11.98,0.41 -6.44,0.06 -11.57,0.06 -5.14,0 -9.48,0.02 -4.34,0.01 -11.03,0.66 -6.68,0.64 -13.33,1.28 -6.65,0.64 -11.53,1.21 -4.89,0.57 -10.45,1.56 -5.57,0.98 -10.62,1.32 -5.05,0.35 -10.4,0.44 Q 40.72,27.06 35.93,26.8 31.15,26.54 25.6,25.72 20.05,24.89 14.46,23.17 8.86,21.44 4.98,18.72 1.1,16 7.52,14.02 q 6.42,-1.99 9.59,-6.49 3.18,-4.49 4.53,-0.03 1.35,4.46 3.96,8.29 2.62,3.83 5.24,8.97 2.63,5.15 4.19,9.17 1.55,4.02 4.1,9.41 2.55,5.38 4.6,9.36 2.06,3.97 4.54,8.84 2.48,4.87 -1.82,6.57 -4.29,1.69 -10.25,5.29 -5.96,3.59 -5.89,-2.73 0.07,-6.31 1.84,-4.34 1.78,1.98 0,1.72 Q 30.37,67.79 28.7,67.12 27.03,66.44 25.58,65.39 24.12,64.33 22.96,62.96 21.8,61.59 21,59.98 q -0.8,-1.62 -1.19,-3.37 -0.39,-1.76 -0.35,-3.55 0.04,-1.8 0.51,-3.54 0.47,-1.73 1.34,-3.31 0.87,-1.57 2.1,-2.89 1.22,-1.32 2.72,-2.3 1.51,-0.99 3.2,-1.59 1.7,-0.6 3.49,-0.78 1.79,-0.17 7.53,-2 5.75,-1.83 10.96,2.65 5.21,4.49 9.3,2.3 4.08,-2.2 6.38,-7.59 2.31,-5.38 8.46,-4.29 6.15,1.08 1.55,5.83 -4.61,4.74 -7.74,1.79 -3.13,-2.95 -7.41,-2.51 -4.29,0.44 -8.87,3.2 -4.58,2.75 -9.43,2.74 -4.85,-0.01 -3.84,4.97 1.01,4.99 3.83,1.64 2.83,-3.36 3.19,1.88 0.36,5.23 1.94,10.04 1.58,4.81 1.2,9.89 -0.38,5.07 -0.66,10.35 -0.28,5.28 -0.22,9.91 0.05,4.63 1.35,8.74 1.29,4.11 -0.32,-0.08 -1.62,-4.2 -0.3,-8.71 1.33,-4.5 2.26,-9.61 0.92,-5.11 1.31,-9.72 0.39,-4.61 -2.76,-1.21 -3.15,3.4 -4.67,-1.14 -1.53,-4.55 -3.36,-0.48 -1.83,4.06 -6.46,0.55 -4.63,-3.51 -8.52,-5.92 -3.89,-2.41 -9.3,-4.71 -5.41,-2.31 -0.68,-3.52 4.73,-1.22 4.11,3.98 -0.61,5.19 3.67,8.16 4.29,2.98 7.48,5.93 3.19,2.96 5.45,6.99 2.25,4.03 4.39,9.44 2.14,5.42 3.8,9.65 1.67,4.22 8.49,5.19 6.83,0.97 11.92,1.64 5.09,0.67 10.29,0.85 5.21,0.18 9.31,-2.98 4.11,-3.16 5.63,-9.02 1.52,-5.87 2.6,-11.57 1.09,-5.71 2.43,-13.3 1.34,-7.59 2.36,-16.57 1.03,-8.98 1.74,-17.85 0.72,-8.87 0.83,-15.7 0.12,-6.84 -0.1,-11.3 -0.23,-4.46 -0.65,-8.48 -0.42,-4.04 -0.27,-5.23 0.14,-1.19 0.57,-2.31 0.43,-1.12 1.12,-2.1 0.68,-0.98 1.58,-1.78 0.9,-0.79 1.96,-1.34 1.07,-0.56 2.23,-0.84 1.17,-0.28 2.36,-0.28 1.2,0.01 2.37,0.3 1.16,0.29 2.22,0.85 1.06,0.56 1.95,1.36 0.9,0.79 1.58,1.78 0.67,0.99 1.1,2.11 0.42,1.13 0.56,2.32 0.14,1.19 -2.68,7.91 -2.82,6.74 -7.26,13.74 -4.45,6.99 -6.95,12.55 -2.5,5.55 -3.1,9.93 -0.6,4.38 -0.64,10.01 -0.04,5.64 0.08,10.29 0.12,4.65 0.35,9.15 0.22,4.5 -0.28,10.69 -0.49,6.2 -1.52,11.39 -1.03,5.19 -6.93,7.16 -5.9,1.97 -12.4,-1.6 -6.5,-3.58 -8.75,-11.82 -2.24,-8.25 -2.5,-14.65 -0.25,-6.4 -0.15,-13.02 0.11,-6.62 0.37,-12.17 0.25,-5.55 0.77,-9.93 0.51,-4.38 1.33,-8.78 0.82,-4.39 0.96,-4.87 0.14,-0.48 0.72,-1.88 0.57,-1.4 1.46,-2.62 0.89,-1.22 2.04,-2.2 1.16,-0.97 2.52,-1.64 1.36,-0.67 2.83,-1 1.48,-0.32 2.99,-0.28 1.52,0.03 2.98,0.43 1.45,0.4 2.78,1.14 1.32,0.73 2.43,1.77 1.1,1.03 1.93,2.29 0.83,1.27 1.33,2.7 0.5,1.42 0.64,2.93 0.15,1.51 -0.07,3 -0.22,1.5 -0.92,7.95 -0.69,6.44 -2.14,11.71 -1.45,5.27 -3.06,10.58 -1.61,5.31 -2.97,10.13 -1.36,4.81 -2.66,12.26 -1.3,7.44 -1.38,11.71 -0.08,4.27 0.08,8.61 0.17,4.35 -4.64,1.16 -4.8,-3.19 -4.44,-8.66 0.36,-5.47 3.53,-9.94 3.17,-4.46 6.32,-9.01 3.15,-4.55 6.09,-8.87 2.94,-4.32 5.41,-8.06 2.47,-3.74 5.57,-8.73 3.1,-5 -1.57,-3.82 Q 94.45,42.36 86.64,39.04 78.83,35.71 73.47,33.41 68.11,31.1 63.23,29.12 58.34,27.13 53.75,25.63 49.16,24.13 44.66,22.72 40.15,21.31 36.23,19.65 32.31,18 28.17,16.06 24.03,14.11 19.48,12.15 14.92,10.19 11.32,9.35 7.71,8.51 5.94,8.3 4.16,8.08 2.49,7.45 0.82,6.81 -0.64,5.8 -2.11,4.78 -3.3,3.44 -4.48,2.11 -5.32,0.52 -6.15,-1.05 -6.57,-2.78 -7,-4.52 -7,-6.31 q 0,-1.79 0.43,-3.52 0.42,-1.74 1.26,-3.32 0.83,-1.58 2.01,-2.92 1.19,-1.34 2.66,-2.35 1.46,-1.02 3.13,-1.65 1.67,-0.64 3.45,-0.85 1.77,-0.22 7.33,-1.37 5.57,-1.14 10.23,-1.81 4.67,-0.66 10.21,-0.91 5.55,-0.24 9.83,-0.31 4.29,-0.08 8.86,-0.16 4.57,-0.08 9.03,-0.12 4.46,-0.05 10.11,-0.05 5.65,0.01 11.04,0 5.39,0 9.68,-0.03 4.3,-0.03 9.2,-0.06 4.91,-0.03 9.67,-0.25 4.75,-0.23 11.22,-0.52 6.46,-0.3 11.81,-0.47 5.35,-0.17 9.92,-0.5 4.56,-0.32 9.15,-0.84 4.59,-0.52 10.16,-0.79 5.57,-0.27 10.21,-0.28 4.64,-0.02 9.25,-0.07 4.6,-0.05 9.25,-0.1 4.65,-0.06 9.03,0.08 4.38,0.14 8.82,0.12 4.45,-0.02 9.92,1.42 5.48,1.45 9.59,3.35 4.12,1.9 8.03,4.06 3.91,2.17 7.48,5.2 3.56,3.02 5.72,7.9 2.15,4.88 2.28,9.22 0.13,4.36 0.15,8.77 0.03,4.42 -1.3,9.62 -1.32,5.19 -3.93,9.71 -2.6,4.51 -6.4,8.48 -3.8,3.97 -9.51,8.6 -5.72,4.63 -11.49,8.38 -5.77,3.75 -10.21,5.73 -4.44,1.99 -9.34,2.69 -4.9,0.69 -11.55,-2.46 -6.66,-3.16 -11.75,-5.9 -5.09,-2.75 -9.71,-3.63 -4.62,-0.89 -10.39,-1.58 -5.77,-0.7 -11.35,-1.02 -5.58,-0.33 -10.5,-0.18 -4.91,0.15 -10.9,1.59 -6,1.44 -9.64,4.42 -3.64,2.97 -5.99,6.88 -2.34,3.9 4.09,3.88 6.43,-0.03 12.41,-1.06 5.98,-1.03 11.53,-2.92 5.56,-1.88 9.31,-3.96 3.76,-2.07 -0.69,-2.8 -4.45,-0.72 0.89,-5.81 5.33,-5.1 3.31,-10.6 -2.02,-5.51 -6.13,-3.41 -4.11,2.1 -10.58,2.68 -6.46,0.58 -9.94,0.46 -3.48,-0.12 -5.11,-0.4 -1.63,-0.27 -3.15,-0.93 -1.52,-0.66 -2.83,-1.66 -1.32,-1 -2.36,-2.29 -1.03,-1.29 -1.73,-2.78 -0.7,-1.5 -1.02,-3.12 -0.32,-1.62 -0.25,-3.28 0.08,-1.65 0.55,-3.23 0.47,-1.59 1.31,-3.01 0.83,-1.43 1.98,-2.62 1.16,-1.18 2.56,-2.06 1.4,-0.87 2.97,-1.38 1.57,-0.52 3.22,-0.64 1.65,-0.12 8.77,-2.12 7.13,-1.99 12.52,-3.29 5.39,-1.3 10.58,-2.45 5.19,-1.16 10.86,-2.49 5.66,-1.31 7.15,-1.72 1.5,-0.41 3.04,-0.53 1.55,-0.11 3.07,0.14 1.53,0.26 2.95,0.87 1.43,0.61 2.66,1.54 1.23,0.93 2.21,2.14 0.97,1.2 1.63,2.61 0.66,1.4 0.96,2.92 0.3,1.52 0.24,3.06 -0.07,1.55 -0.51,3.04 -0.44,1.48 -1.22,2.82 -0.78,1.34 -1.86,2.45 -1.08,1.11 -2.39,1.94 -1.31,0.82 -2.78,1.3 -1.47,0.49 -6.08,1.54 -4.61,1.04 -6.62,2.43 -2,1.38 -3.47,2.05 -1.47,0.67 -3.05,0.97 -1.59,0.29 -3.2,0.2 -1.61,-0.09 -3.15,-0.56 -1.55,-0.48 -2.93,-1.3 -1.39,-0.83 -2.53,-1.97 -1.15,-1.14 -1.99,-2.52 -0.84,-1.37 -1.33,-2.91 -0.48,-1.54 -0.59,-3.15 -0.1,-1.61 0.19,-3.2 0.28,-1.59 0.94,-3.07 0.65,-1.47 1.64,-2.74 0.99,-1.28 2.26,-2.28 1.27,-1 8.18,-0.91 6.91,0.1 13.42,-0.93 6.51,-1.03 11.98,-1.85 5.47,-0.82 6.8,-1.14 1.33,-0.32 2.93,-0.39 1.6,-0.06 3.17,0.26 1.58,0.32 3.02,1 1.45,0.69 2.7,1.7 1.24,1.02 2.2,2.3 0.97,1.28 1.6,2.76 0.63,1.47 0.88,3.05 0.26,1.59 0.13,3.18 -0.13,1.6 -0.63,3.12 -0.51,1.53 -1.37,2.88 -0.85,1.36 -2.01,2.47 -1.15,1.11 -2.54,1.91 -1.39,0.8 -2.93,1.25 -1.54,0.45 -6.81,1.24 -5.27,0.8 -7.07,1.57 -1.81,0.78 -3.34,1.41 -1.54,0.63 -3.18,0.88 -1.64,0.24 -3.29,0.09 -1.65,-0.16 -3.22,-0.7 -1.56,-0.55 -2.95,-1.45 -1.39,-0.91 -2.53,-2.12 -1.13,-1.21 -1.94,-2.66 -0.81,-1.44 -1.25,-3.04 -0.44,-1.6 -0.49,-3.26 -0.04,-1.66 0.31,-3.28 0.35,-1.62 1.08,-3.11 0.73,-1.49 1.8,-2.76 1.06,-1.27 2.4,-2.25 1.34,-0.98 8.44,-0.79 7.11,0.19 12.18,0.29 5.08,0.09 9.75,0.25 4.66,0.16 12.17,6.03 7.5,5.88 5.38,13.21 -2.11,7.33 -4.91,-0.12 -2.8,-7.46 -5.28,-0.8 -2.48,6.66 0.89,9.43 3.37,2.76 -3.4,2.7 -6.78,-0.05 -14.32,1.25 -7.53,1.31 -12.41,3.18 -4.88,1.87 -9.98,5.01 -5.1,3.15 -11.26,6.72 -6.16,3.56 -11.34,6.49 -5.18,2.93 -9.07,5.38 -3.9,2.46 -8.25,-3.8 -4.35,-6.26 -1.26,-10.43 3.1,-4.18 7.03,-6.78 3.92,-2.6 8.1,-5.14 4.17,-2.55 11.93,-2.12 7.76,0.43 13.61,1.89 5.85,1.46 13.58,1.33 7.74,-0.12 15.25,-1.69 7.51,-1.56 12.81,-3.1 5.3,-1.55 13.04,2.91 7.75,4.45 7.52,11.42 -0.24,6.98 -2.77,10.78 -2.53,3.8 -5.57,8.61 -3.03,4.82 -9.4,10.15 -6.36,5.34 -11.18,7.25 -4.82,1.92 -10.32,3.97 -5.5,2.05 -11.25,3.97 -5.74,1.92 -10.44,3.49 -4.69,1.56 -10.21,3.49 -5.51,1.93 -10.12,3.66 -4.61,1.73 -9.54,3.55 -4.94,1.81 -8.01,6.12 -3.08,4.3 -6.87,8.22 -3.79,3.91 -7.53,6.61 -3.74,2.69 -7.45,6.13 -3.71,3.45 -2.61,2.53 1.1,-0.91 -0.22,0.26 -1.31,1.17 -2.88,2 -1.56,0.82 -3.27,1.25 -1.71,0.42 -3.48,0.43 -1.76,0 -3.48,-0.42 -1.71,-0.41 -3.28,-1.23 -1.56,-0.82 -2.89,-1.98 -1.32,-1.17 -2.33,-2.62 -1,-1.45 -1.63,-3.1 -0.63,-1.65 -0.85,-3.4 -0.22,-1.75 -0.01,-3.51 0.21,-1.75 0.83,-3.4 0.63,-1.65 1.62,-3.11 1,-1.45 8.95,-3.49 7.95,-2.03 12.92,-3.69 4.96,-1.66 10.78,-3.78 5.82,-2.13 10.57,-3.81 4.74,-1.69 7.74,-10.45 3,-8.77 5.16,-13.83 2.16,-5.06 4.09,-9.69 1.93,-4.63 4.48,-10.95 2.55,-6.33 4.75,-10.79 2.2,-4.46 5.54,-7.55 3.34,-3.1 9.41,-4.83 6.07,-1.73 11.03,-2.39 4.96,-0.66 13.7,6.49 8.73,7.16 6.53,12.55 -2.2,5.39 -4.99,8.51 -2.8,3.11 -4.01,4.3 -1.22,1.2 -2.68,2.07 -1.47,0.86 -3.09,1.36 -1.63,0.49 -3.33,0.58 -1.71,0.09 -3.38,-0.23 -1.67,-0.32 -3.22,-1.03 -1.54,-0.71 -2.88,-1.77 -1.33,-1.07 -2.37,-2.41 -1.04,-1.35 -1.72,-2.91 -0.69,-1.56 -0.98,-3.24 -0.29,-1.67 -0.18,-3.37 0.12,-1.7 0.64,-3.32 0.52,-1.62 1.41,-3.07 0.89,-1.45 7.44,-4.05 6.56,-2.6 13.28,-6.27 6.73,-3.68 11.26,-5.86 4.53,-2.18 8.68,-4.1 4.15,-1.91 10.31,-4.63 6.15,-2.73 10.44,-3.95 4.3,-1.23 11.45,2.5 7.15,3.73 8.76,9.06 1.61,5.33 -0.44,10.47 -2.05,5.14 -4.51,9.16 -2.47,4.03 -4.8,8.46 -2.33,4.43 -3.56,8.72 -1.23,4.29 -2.97,8.5 -1.73,4.2 -4.2,8.04 -2.47,3.84 -7.27,7.94 -4.79,4.11 -8.94,6.21 -4.15,2.11 -9.77,4.58 -5.61,2.47 -11.71,5.24 -6.1,2.77 -10.35,5.06 -4.24,2.29 -8.07,4.81 -3.83,2.53 -6.08,6.15 -2.26,3.61 -7.55,8.02 -5.3,4.41 -9.59,6.8 -4.29,2.4 -5.06,2.77 -0.77,0.37 -2.49,0.89 -1.72,0.51 -3.52,0.6 -1.79,0.08 -3.56,-0.26 -1.76,-0.35 -3.39,-1.1 -1.63,-0.76 -3.03,-1.89 -1.4,-1.12 -2.49,-2.55 -1.09,-1.43 -1.81,-3.07 -0.72,-1.65 -1.02,-3.42 -0.3,-1.77 -0.17,-3.57 0.13,-1.79 0.68,-3.5 0.56,-1.71 1.5,-3.23 0.95,-1.53 2.24,-2.78 1.28,-1.26 2.83,-2.17 1.55,-0.91 7.88,-3.24 6.34,-2.32 12.72,-5.49 6.38,-3.17 12.22,-6.24 5.84,-3.07 9.99,-5.31 4.16,-2.23 7.46,-4.92 3.31,-2.68 7.6,-5.88 4.28,-3.2 8.87,-5.94 4.59,-2.74 8.9,-4.99 4.31,-2.25 8.88,-3.19 4.58,-0.94 10.3,2.92 5.73,3.85 6.78,11.7 1.05,7.84 -1.97,11.35 -3.02,3.51 -7.53,6.96 -4.5,3.45 -9.37,7.08 -4.88,3.63 -9.27,6.78 -4.4,3.15 -8.21,5.56 -3.8,2.41 -7.5,5.34 -3.69,2.94 -8.47,4.82 -4.77,1.89 0.4,-2.85 5.18,-4.74 0.6,-12.76 -4.58,-8.02 0.19,-10.16 4.77,-2.14 11.62,-4.65 6.85,-2.52 10.82,-4.46 3.98,-1.94 2.12,2.56 -1.85,4.5 0.22,10.12 2.07,5.63 -1.42,2.38 -3.48,-3.26 -6.58,-6.27 -3.1,-3.01 -6.17,-6.98 -3.07,-3.96 -5.47,-8.04 -2.4,-4.07 -4.48,-7.91 -2.09,-3.84 -3.61,-6.27 -1.52,-2.43 -2.28,-4.71 -0.77,-2.28 -0.76,-4.68 0,-2.4 0.78,-4.68 0.77,-2.28 2.23,-4.19 1.46,-1.91 3.45,-3.25 1.99,-1.35 4.31,-1.99 2.32,-0.63 4.72,-0.5 2.4,0.14 4.63,1.03 2.23,0.9 4.06,2.46 1.83,1.56 3.06,3.62 1.24,2.06 1.75,4.41 0.51,2.35 0.25,4.74 -0.27,2.39 -1.28,4.57 -1.02,2.18 -2.68,3.92 -1.65,1.74 -3.78,2.86 -2.13,1.12 -4.5,1.51 -2.37,0.38 -4.74,-0.01 -2.37,-0.4 -4.5,-1.53 -2.12,-1.13 -3.77,-2.88 -1.65,-1.75 -2.65,-3.93 -1,-2.19 -1.26,-4.58 -0.25,-2.39 0.27,-4.73 0.52,-2.35 1.77,-4.41 1.24,-2.05 3.08,-3.61 1.83,-1.55 4.07,-2.43 2.23,-0.89 4.63,-1.01 2.4,-0.13 4.72,0.52 2.31,0.65 4.3,2 1.99,1.36 3.44,3.28 1.45,1.91 1.45,1.91 -0.01,0 2.52,4.13 2.53,4.14 4.25,8.13 1.71,3.98 5.08,8.4 3.36,4.42 6.67,7.89 3.32,3.47 6.1,7.12 2.78,3.65 2.57,9.97 -0.22,6.33 -5,10.07 -4.79,3.75 -9.65,6.08 -4.85,2.34 -9.12,4.32 -4.26,1.98 -9.56,4.02 -5.3,2.03 -13.65,3.28 -8.35,1.24 -12.35,-0.41 -4,-1.65 -6.97,-12.71 -2.98,-11.07 2.04,-14.1 5.02,-3.04 8.52,-5.53 3.5,-2.49 8.44,-5.5 4.93,-3.01 8.8,-5.94 3.88,-2.93 9.9,-7.25 6.03,-4.32 7.63,1.74 1.59,6.06 4.28,10.9 2.69,4.83 -2.33,8 -5.02,3.17 -8.54,5.95 -3.51,2.78 -7.07,5.4 -3.56,2.62 -8.06,4.75 -4.51,2.14 -10.3,5.42 -5.79,3.28 -12.97,7.36 -7.18,4.07 -13.62,6.64 -6.44,2.56 -8.16,3.08 -1.72,0.51 -3.52,0.6 -1.79,0.08 -3.55,-0.26 -1.77,-0.35 -3.4,-1.1 -1.63,-0.76 -3.03,-1.88 -1.4,-1.13 -2.49,-2.56 -1.09,-1.42 -1.81,-3.07 -0.72,-1.65 -1.02,-3.42 -0.3,-1.77 -0.17,-3.56 0.12,-1.8 0.68,-3.51 0.56,-1.71 1.5,-3.23 0.95,-1.53 2.24,-2.78 1.28,-1.26 2.83,-2.17 1.55,-0.91 5.36,-1.52 3.82,-0.6 5.75,-4.66 1.94,-4.06 5.44,-7.57 3.5,-3.51 8.05,-6.27 4.55,-2.76 8.32,-4.96 3.77,-2.21 9.83,-5.39 6.05,-3.18 12.12,-6.12 6.06,-2.94 11.11,-5.35 5.05,-2.42 7.99,-5.7 2.95,-3.28 4.52,-7.98 1.57,-4.7 3.31,-8.61 1.73,-3.91 4.15,-7.94 2.42,-4.04 7.18,-5.6 4.76,-1.56 9.87,2.27 5.12,3.82 1.02,4.98 -4.11,1.15 -10.94,4.47 -6.84,3.32 -11.06,5.74 -4.22,2.42 -8.82,5.13 -4.59,2.72 -9.19,4.95 -4.6,2.23 -9.15,3.15 -4.55,0.92 0.53,-1.76 5.08,-2.69 3.87,-1.5 -1.22,1.2 -2.68,2.06 -1.46,0.87 -3.09,1.37 -1.63,0.49 -3.33,0.58 -1.7,0.09 -3.38,-0.23 -1.67,-0.32 -3.22,-1.03 -1.54,-0.71 -2.87,-1.77 -1.34,-1.06 -2.38,-2.41 -1.03,-1.35 -1.72,-2.91 -0.69,-1.56 -0.98,-3.24 -0.29,-1.67 -0.18,-3.37 0.12,-1.7 0.64,-3.32 0.52,-1.62 1.41,-3.07 0.89,-1.45 3.54,-1.83 2.65,-0.38 7.04,6.82 4.38,7.21 -0.06,8.52 -4.45,1.31 -6.88,7.15 -2.43,5.83 -4.04,10.47 -1.6,4.65 -3.25,9.84 -1.66,5.18 -4.32,13.67 -2.66,8.5 -4.7,13.72 -2.05,5.22 -7.55,8.66 -5.5,3.45 -10.62,5.19 -5.12,1.73 -11.89,4.44 -6.77,2.71 -14.94,4.77 -8.18,2.06 -13.97,1.75 -5.78,-0.31 1.98,-2.42 7.76,-2.1 6.45,-0.92 -1.32,1.17 -2.88,2 -1.56,0.82 -3.28,1.25 -1.71,0.42 -3.48,0.43 -1.76,0 -3.48,-0.42 -1.71,-0.41 -3.28,-1.23 -1.56,-0.82 -2.89,-1.98 -1.32,-1.17 -2.33,-2.62 -1,-1.45 -1.63,-3.1 -0.63,-1.65 -0.85,-3.4 -0.22,-1.75 -0.01,-3.51 0.21,-1.75 0.83,-3.4 0.62,-1.65 1.62,-3.11 1,-1.45 3.38,-3.71 2.38,-2.25 5.76,-4.96 3.39,-2.7 6.91,-5.18 3.51,-2.47 6.14,-6.12 2.63,-3.64 5.93,-7.06 3.3,-3.42 8.01,-5.51 4.71,-2.09 9.03,-3.25 4.31,-1.15 10.13,-2.79 5.82,-1.64 10.88,-3.17 5.07,-1.53 9.38,-3.15 4.3,-1.62 9.35,-3.86 5.06,-2.25 10.07,-4.75 5.01,-2.51 11.95,-5.96 6.94,-3.44 4.34,0.83 -2.6,4.27 -1.41,-0.54 1.2,-4.81 4.01,-8.36 2.8,-3.55 5.62,-7.24 2.82,-3.69 3.45,1.55 0.62,5.24 4.45,10.22 3.82,4.98 -2.82,6.75 -6.64,1.77 -11.92,3.08 -5.28,1.31 -14.98,2.13 -9.7,0.83 -17.34,0.31 -7.63,-0.51 -13.38,-3.83 -5.76,-3.32 0.36,-2.68 6.13,0.64 1.99,3.21 -4.14,2.58 -9.47,6.03 -5.33,3.45 -12.99,6.22 -7.66,2.76 -13.26,0.96 -5.59,-1.79 -9.7,-9.99 -4.12,-8.2 -2.32,-12.33 1.8,-4.13 4.98,-7.13 3.18,-3 7.51,-5.75 4.34,-2.75 8.42,-5.06 4.08,-2.31 9.45,-5.52 5.37,-3.21 11.42,-6.62 6.04,-3.41 10.51,-5.55 4.47,-2.14 10.98,-4.57 6.52,-2.43 11.43,-3.82 4.91,-1.39 10.38,-2.38 5.47,-1 13.76,-1.36 8.29,-0.36 15.21,3.05 6.93,3.41 4.74,14.16 -2.19,10.75 -6.51,12.88 -4.31,2.13 -10.28,2.83 -5.96,0.7 -10.8,-1.88 -4.84,-2.59 -6.79,-11 -1.95,-8.42 2.58,-12.74 4.53,-4.32 3.57,1.73 -0.96,6.04 0.97,11.4 1.93,5.37 -4.45,5.14 -6.38,-0.23 -13.65,-1.75 -7.28,-1.52 -1.26,-1.91 6.01,-0.39 4.48,0.24 -1.53,0.63 -3.17,0.88 -1.64,0.24 -3.3,0.09 -1.65,-0.16 -3.21,-0.7 -1.57,-0.55 -2.96,-1.45 -1.39,-0.91 -2.53,-2.12 -1.13,-1.21 -1.94,-2.65 -0.81,-1.45 -1.25,-3.05 -0.44,-1.6 -0.49,-3.26 -0.04,-1.66 0.31,-3.28 0.35,-1.62 1.08,-3.11 0.73,-1.49 1.8,-2.76 1.06,-1.27 2.4,-2.25 1.34,-0.98 2.55,-1.64 1.21,-0.65 5.55,-1.95 4.34,-1.3 10.45,-2.04 6.11,-0.74 7.71,-0.81 1.6,-0.06 3.17,0.26 1.57,0.32 3.02,1 1.45,0.69 2.7,1.7 1.24,1.02 2.2,2.3 0.97,1.28 1.6,2.75 0.63,1.48 0.88,3.06 0.26,1.58 0.13,3.18 -0.12,1.6 -0.63,3.12 -0.51,1.52 -1.37,2.88 -0.85,1.36 -2.01,2.47 -1.15,1.11 -2.54,1.91 -1.39,0.8 -2.93,1.25 -1.54,0.45 -2.81,0.64 -1.27,0.19 -8.04,1.14 -6.76,0.94 -15.7,1.48 -8.93,0.54 -13.6,-0.45 -4.68,-0.99 1.58,-1.3 6.25,-0.31 4.78,0.36 -1.46,0.67 -3.05,0.97 -1.59,0.29 -3.2,0.2 -1.61,-0.09 -3.15,-0.56 -1.55,-0.47 -2.93,-1.3 -1.39,-0.83 -2.53,-1.97 -1.15,-1.14 -1.99,-2.51 -0.84,-1.38 -1.33,-2.92 -0.48,-1.54 -0.59,-3.15 -0.1,-1.61 0.19,-3.2 0.28,-1.59 0.94,-3.06 0.65,-1.48 1.64,-2.75 0.99,-1.28 2.26,-2.28 1.27,-1 5.41,-3.16 4.14,-2.17 11.07,-3.6 6.92,-1.44 8.47,-1.56 1.54,-0.11 3.07,0.14 1.53,0.26 2.95,0.87 1.42,0.61 2.66,1.54 1.23,0.93 2.21,2.14 0.97,1.2 1.63,2.6 0.66,1.41 0.96,2.93 0.3,1.51 0.24,3.06 -0.07,1.55 -0.51,3.04 -0.44,1.48 -1.22,2.82 -0.78,1.34 -1.86,2.45 -1.08,1.11 -2.39,1.94 -1.31,0.82 -2.78,1.3 -1.47,0.49 -2.78,0.69 -1.3,0.2 -6.63,1.25 -5.32,1.04 -10.02,2.37 -4.69,1.33 -9.87,3.07 -5.17,1.75 -10.2,3.43 -5.02,1.69 -11.51,2.96 -6.49,1.28 -8.12,1 -1.63,-0.27 -3.15,-0.93 -1.52,-0.66 -2.83,-1.66 -1.32,-1 -2.36,-2.29 -1.03,-1.28 -1.73,-2.78 -0.7,-1.5 -1.02,-3.12 -0.32,-1.62 -0.25,-3.27 0.08,-1.66 0.55,-3.24 0.47,-1.59 1.3,-3.01 0.84,-1.43 1.99,-2.61 1.15,-1.19 2.56,-2.06 1.4,-0.88 2.97,-1.39 1.57,-0.52 3.22,-0.64 1.65,-0.12 4.01,0.1 2.36,0.21 8.14,0.97 5.78,0.75 10.25,1.74 4.47,0.99 9.52,3.22 5.06,2.23 8.89,7.01 3.83,4.78 4.11,10.93 0.28,6.15 -2.47,10.53 -2.74,4.38 -10.02,7.15 -7.27,2.78 -12.11,0.41 -4.84,-2.37 -6.9,-8.14 -2.06,-5.78 4.99,-10.94 7.06,-5.16 12.37,-3.9 5.31,1.26 9.68,3.5 4.38,2.24 8.16,6.35 3.79,4.1 5.19,8.45 1.41,4.34 0.5,9.07 -0.91,4.73 -3.56,8.27 -2.65,3.54 -6.3,6.2 -3.65,2.67 -8.66,5.24 -5.01,2.57 -11.77,5.36 -6.76,2.8 -14.82,5.08 -8.05,2.27 -15.89,2.79 -7.84,0.51 -14.67,-1.18 -6.82,-1.69 -11.01,-6.17 -4.19,-4.47 -5.31,-9.66 -1.11,-5.19 0.94,-12.34 2.05,-7.14 4.29,-10.93 2.24,-3.79 5.18,-7.2 2.93,-3.41 6.68,-6.48 3.75,-3.08 8.09,-5.34 4.34,-2.27 8.69,-3.51 4.34,-1.25 8.98,-1.91 4.63,-0.66 10.4,-1.16 5.77,-0.49 11.89,-0.71 6.12,-0.22 13.01,-0.27 6.9,-0.06 13.85,0.56 6.96,0.62 12.29,2.21 5.34,1.6 9.31,4.5 3.97,2.91 7.87,0.19 3.91,-2.71 8.33,-6.72 4.43,-4 7.36,-8.92 2.93,-4.91 2.96,-9.51 0.02,-4.61 2.36,-0.75 2.35,3.86 -1.93,1.47 -4.28,-2.4 -8.84,-3.75 -4.57,-1.34 -8.97,-1.56 -4.41,-0.22 -9.09,-0.27 -4.68,-0.06 -9.04,-0.11 -4.36,-0.06 -9,-0.07 -4.64,-0.01 -10.53,0.21 -5.9,0.23 -10.75,0.79 -4.85,0.57 -9.73,0.94 -4.87,0.36 -10.76,0.64 -5.9,0.28 -11.1,0.62 -5.21,0.34 -10.53,0.6 -5.32,0.25 -9.91,0.23 Q 99.53,4.76 94.78,4.73 90.03,4.69 85.18,4.68 80.32,4.67 75.69,4.68 71.06,4.69 65.41,4.66 59.76,4.63 55.24,4.56 50.73,4.48 46.27,4.41 41.82,4.34 36.78,4.44 31.74,4.54 25.97,5.49 20.19,6.45 13.95,7.48 7.71,8.51 5.94,8.3 4.16,8.08 2.49,7.45 0.82,6.81 -0.64,5.8 -2.11,4.78 -3.3,3.45 -4.48,2.11 -5.31,0.52 -6.15,-1.05 -6.57,-2.78 -7,-4.52 -7,-6.31 q 0,-1.78 0.43,-3.52 0.42,-1.74 1.25,-3.32 0.84,-1.58 2.02,-2.92 1.19,-1.34 2.66,-2.35 1.46,-1.02 3.13,-1.65 1.67,-0.64 3.45,-0.85 1.77,-0.22 5.01,-0.14 3.23,0.08 7.51,0.82 4.27,0.74 8.06,3.37 3.8,2.63 8.23,4.73 4.43,2.09 8.9,4.41 4.47,2.31 9.23,4.16 4.76,1.85 9.07,3.53 4.31,1.68 8.78,3.78 4.47,2.1 8.48,4.05 4.01,1.95 10.37,4.76 6.37,2.8 14.41,5.96 8.04,3.17 14.02,6.77 5.98,3.61 8.41,11.11 2.44,7.51 0.08,12.16 -2.35,4.65 -5.79,9.54 -3.44,4.9 -5.87,8.58 -2.43,3.69 -5.15,8.05 -2.72,4.37 -5.59,9.19 -2.88,4.82 -5.79,9.71 -2.92,4.88 -5.84,9.57 -2.92,4.7 -6.19,8.93 -3.26,4.24 -10.25,6.6 -6.99,2.36 -11.83,-1.18 -4.85,-3.54 -5.85,-8.41 -1.01,-4.88 -0.75,-9.22 0.25,-4.34 0.58,-8.67 0.34,-4.34 1.36,-11.42 1.02,-7.07 2.01,-11.79 0.99,-4.72 2.2,-9.66 1.21,-4.95 2.45,-10.14 1.23,-5.18 2.25,-9.67 1.01,-4.5 2.01,-12 1,-7.51 1.57,-8.91 0.58,-1.41 1.47,-2.63 0.89,-1.22 2.04,-2.2 1.16,-0.97 2.52,-1.64 1.35,-0.67 2.83,-1 1.48,-0.32 2.99,-0.28 1.51,0.03 2.97,0.43 1.46,0.4 2.79,1.14 1.32,0.73 2.42,1.76 1.11,1.04 1.94,2.3 0.83,1.27 1.33,2.7 0.5,1.42 0.64,2.93 0.15,1.51 -0.07,3 -0.22,1.5 -0.73,2.74 -0.52,1.25 -1.5,6.27 -0.97,5.03 -0.99,9.78 -0.01,4.74 0.59,10.73 0.59,6 1.85,14.58 1.26,8.58 -3.32,7.5 -4.59,-1.07 -10.98,0.04 -6.4,1.11 -6.15,-3.45 0.24,-4.56 0.48,-9.37 0.24,-4.81 0.52,-10.84 0.28,-6.03 1.27,-13.42 0.99,-7.38 3.81,-14.41 2.82,-7.04 5.02,-10.67 2.21,-3.64 4.66,-7.16 2.46,-3.52 6.45,-7.66 3.99,-4.16 4.14,-5.35 0.14,-1.19 0.57,-2.3 0.43,-1.12 1.12,-2.11 0.68,-0.98 1.58,-1.78 0.9,-0.79 1.96,-1.34 1.07,-0.55 2.23,-0.84 1.17,-0.28 2.36,-0.28 1.2,0.01 2.37,0.3 1.16,0.29 2.22,0.85 1.06,0.56 1.95,1.36 0.9,0.79 1.58,1.78 0.67,0.99 1.09,2.11 0.43,1.13 0.57,2.32 0.14,1.19 -0.31,5.23 -0.45,4.03 -0.72,8.51 -0.26,4.48 -0.24,11.37 0.02,6.88 0.52,15.92 0.49,9.04 0.98,18.63 0.5,9.59 0.6,17.89 0.11,8.31 -0.32,14.74 -0.43,6.43 -1.28,11.66 -0.85,5.23 -2.53,9.79 -1.68,4.55 -6.67,10.72 -4.98,6.17 -8.63,8.89 -3.65,2.72 -8.2,4.54 -4.55,1.82 -11.15,2.21 -6.6,0.4 -13.38,0.02 -6.79,-0.38 -13,-1.43 -6.22,-1.05 -12.03,-2.57 -5.82,-1.51 -10.57,-4.06 -4.75,-2.54 -8.2,-6.72 -3.45,-4.18 -5.71,-9.97 Q 17.52,103.11 15.9,97.75 14.28,92.4 10.35,90.25 6.42,88.1 1.59,84.08 -3.24,80.07 -4.55,72.55 -5.86,65.04 -5.37,59.58 q 0.49,-5.46 2.56,-12.66 2.06,-7.2 5.47,-10.96 3.42,-3.75 8.41,-4.98 4.98,-1.23 10.79,0.55 5.81,1.78 10.11,3.74 4.3,1.97 9.71,4.86 5.42,2.89 10.7,6.64 5.27,3.75 9.56,8.87 4.29,5.12 5.58,11.31 1.29,6.2 -0.86,11.44 -2.15,5.23 -9.61,8.48 -7.46,3.26 -12.7,2.49 -5.25,-0.76 -11.58,-3.6 -6.34,-2.84 -8.35,-6.92 -2.01,-4.07 -0.96,-11.59 1.04,-7.52 4.36,-12.82 3.32,-5.3 6.88,-8.74 3.55,-3.43 8.07,-5 4.51,-1.57 11.82,-0.42 7.31,1.15 11.79,4.05 4.48,2.9 7.21,7.91 2.73,5.01 3.11,9.92 0.39,4.9 0.07,10.39 -0.32,5.49 -1.04,11.97 Q 75,91 73.4,97.95 q -1.6,6.95 -4.68,13 -3.08,6.04 -7.81,9.73 -4.72,3.69 -12.79,3.36 -8.07,-0.32 -13.67,-5.64 -5.6,-5.31 -7.21,-9.42 -1.6,-4.11 -2.44,-8.99 -0.83,-4.88 -1.16,-10.17 -0.34,-5.28 -0.5,-10.76 -0.16,-5.48 -0.27,-11.18 -0.1,-5.7 0.12,-10.96 0.21,-5.25 1.04,-10.35 0.82,-5.09 4.04,-10.24 3.22,-5.15 11.22,-7.3 8,-2.15 13.47,-0.76 5.47,1.39 9.91,3.89 4.44,2.51 7,7.34 2.56,4.83 1,12.9 -1.56,8.06 -6.83,13.51 -5.26,5.45 -10.01,7.9 -4.76,2.44 -10.08,3.19 -5.33,0.75 -9.88,-0.03 -4.55,-0.78 -9.05,-3.17 -4.5,-2.39 -8.4,-10.7 -3.9,-8.32 -3.71,-14.11 0.2,-5.8 1.79,-13.25 1.59,-7.45 4.11,-11.33 2.52,-3.88 10.22,-7.68 7.7,-3.81 15.1,-3.9 7.41,-0.08 11.98,0.44 4.57,0.53 9.21,2.03 4.64,1.5 9.38,5.23 4.74,3.73 6.91,9.35 2.18,5.62 1.84,10.02 -0.35,4.4 -4.3,11.07 Q 75,57.63 70.66,59.62 66.32,61.61 59.61,60.43 52.9,59.24 48.6,53.67 44.31,48.1 44.2,42.61 q -0.11,-5.48 2.19,-10.87 2.29,-5.4 6.91,-10.67 4.61,-5.28 8.17,-8.57 3.57,-3.28 7.93,-5.82 4.37,-2.53 9.61,-2.83 5.25,-0.3 9.43,1.89 4.19,2.19 6.45,6.01 2.27,3.82 2.19,11.43 -0.07,7.61 -1.37,12.13 -1.3,4.51 -3.58,9.65 -2.28,5.15 -5.88,10.16 -3.59,5.02 -9.2,8.86 -5.61,3.84 -11.96,4.51 -6.35,0.67 -11.3,-1.13 -4.94,-1.8 -8.41,-4.82 -3.47,-3.01 -5.96,-7.39 -2.49,-4.39 -3.3,-8.62 -0.82,-4.24 0.04,-11.02 0.87,-6.77 3.79,-10.33 2.93,-3.55 8.44,-5.74 5.51,-2.2 10.27,-2.23 4.77,-0.04 9.19,1.41 4.42,1.44 6.97,5.52 2.56,4.08 3.47,8.42 0.91,4.33 -0.85,8.7 -1.77,4.37 -5.93,8.98 -4.15,4.61 -7.62,7.24 -3.46,2.64 -8.07,5.18 -4.6,2.54 -13.25,4.09 -8.64,1.56 -10.42,1.3 Q 30.37,67.79 28.7,67.12 27.04,66.44 25.58,65.39 24.12,64.33 22.96,62.96 21.8,61.59 21,59.98 q -0.8,-1.61 -1.19,-3.37 -0.39,-1.75 -0.35,-3.55 0.04,-1.8 0.51,-3.54 0.47,-1.73 1.34,-3.3 0.87,-1.58 2.1,-2.9 1.22,-1.31 2.72,-2.3 1.5,-0.99 3.2,-1.59 1.7,-0.6 3.48,-0.78 1.79,-0.17 2.71,-0.14 0.91,0.04 5.66,0.7 4.76,0.66 10.78,5.99 6.03,5.34 6.96,12.32 0.92,6.98 0.92,11.9 0,4.92 -0.43,9.77 -0.42,4.86 -2.86,8.79 -2.44,3.93 -6.65,5.22 -4.21,1.29 -10.57,0.16 -6.35,-1.13 -9.12,-4.88 -2.77,-3.76 -5.44,-8.4 Q 22.11,75.44 19.62,70.86 17.14,66.28 15.01,62.24 12.88,58.21 10.64,53.51 8.41,48.81 6.21,43.69 4.02,38.58 1.6,34.5 -0.81,30.42 -3.48,25.38 -6.15,20.34 -7.62,15.05 -9.1,9.76 -9.27,4.68 -9.45,-0.39 -6.2,-5.2 q 3.24,-4.81 8.37,-6.51 5.13,-1.7 10.44,0.7 5.3,2.4 9.45,4.85 4.14,2.45 9.3,3.26 5.16,0.81 9.65,0.94 4.49,0.14 9.37,0.16 4.87,0.02 9.42,-0.59 4.54,-0.61 9.39,-1.26 4.86,-0.66 10.61,-1.33 5.75,-0.67 12.17,-1.54 6.41,-0.86 11.72,-1.27 5.31,-0.4 9.65,-0.4 4.34,0 9.32,-0.05 4.99,-0.05 10.58,-0.25 5.6,-0.2 11.58,-0.74 5.99,-0.55 11.54,-0.75 5.54,-0.21 11.75,-0.25 6.21,-0.04 11.19,-0.04 4.98,0 10.9,-0.04 5.92,-0.03 11.33,-0.13 5.42,-0.09 10.93,-0.1 5.51,0 10.71,0.7 5.21,0.71 10.27,1.27 5.07,0.57 10.32,1.3 5.25,0.73 8.6,3.4 3.35,2.67 5.45,9.03 2.1,6.37 2.04,11.09 -0.07,4.73 -0.4,9.04 -0.33,4.31 -0.95,9.53 -0.63,5.22 -1.14,9.58 -0.51,4.35 -1.19,9.19 -0.68,4.83 -1.69,9.73 -1.01,4.91 -1.9,10.56 -0.9,5.65 -2.07,11.54 -1.16,5.89 -2,10.85 -0.83,4.95 -2.11,9.92 -1.27,4.97 -2.75,9.45 -1.49,4.49 -3.83,9.03 -2.35,4.55 -5.59,8.63 -3.24,4.08 -6.74,7.83 -3.5,3.74 -8.04,6.67 -4.55,2.93 -8.67,4.79 -4.12,1.87 -9.58,3.25 -5.45,1.38 -10.64,2.31 -5.18,0.93 -11.32,1.52 -6.15,0.59 -11.21,0.83 -5.06,0.24 -9.49,0.4 -4.42,0.15 -10.16,0.42 -5.73,0.26 -11.01,0.28 -5.28,0.01 -11.08,0.05 -5.8,0.03 -11.58,0.07 -5.78,0.04 -10.89,0.01 -5.11,-0.03 -9.95,-0.35 -4.85,-0.32 -10.57,-0.86 -5.73,-0.53 -10.05,-1.01 -4.33,-0.48 -8.77,-1.24 -4.45,-0.77 -9.04,-2 -4.59,-1.24 -9.06,-3.4 -4.47,-2.16 -9.19,-4.87 -4.72,-2.71 -9.04,-5.76 -4.33,-3.05 -8.64,-5.88 -4.31,-2.83 -7.89,-5.65 -3.58,-2.81 -7.01,-7.48 -3.43,-4.67 -5.49,-9.07 -2.07,-4.39 -3.51,-9.16 -1.44,-4.77 -2.73,-9.77 -1.29,-5.01 -2.33,-9.8 -1.04,-4.79 -1.64,-9.57 -0.6,-4.77 -1.09,-9.1 -0.48,-4.33 -0.64,-9.3 -0.16,-4.97 -0.23,-9.36 -0.07,-4.4 0.2,-9.13 0.28,-4.74 0.59,-9.5 0.32,-4.76 0.67,-9.36 0.36,-4.6 0.65,-8.91 0.3,-4.32 0.47,-7.76 0.16,-3.44 0.31,-4.67 0.15,-1.23 0.59,-2.4 0.44,-1.16 1.15,-2.18 0.71,-1.02 1.64,-1.85 0.93,-0.82 2.03,-1.4 1.1,-0.58 2.31,-0.88 1.2,-0.29 2.44,-0.29 1.24,0 2.45,0.29 1.2,0.3 2.3,0.88 1.1,0.58 2.03,1.4 0.94,0.83 1.64,1.85 0.71,1.02 1.15,2.19 0.44,1.16 0.59,2.39 Q 10.31,0 10.31,0 Z"
           id="path14" />
      </g>
      <g
         stroke-opacity="0.3"
         fill-opacity="0.3"
         transform="translate(99.504858,113.57922)"
         stroke="none"
         id="g20">
        <path
           fill="#1e1e1e"
           d="m -6.65,7.93 q 0,0 -2.92,-2.24 -2.92,-2.25 -6.67,-5.6 -3.76,-3.34 -6.99,-7.51 -3.23,-4.17 -4.91,-8.39 -1.68,-4.21 -2.69,-9.1 -1.01,-4.9 -1.05,-9.56 -0.05,-4.66 1.92,-9.78 1.97,-5.12 4.83,-9.63 2.86,-4.5 5.25,-8.7 2.38,-4.2 3.81,-8.65 1.42,-4.44 1.27,-8.95 -0.14,-4.52 -5.02,-6.94 -4.88,-2.42 -6.1,-4.48 -1.21,-2.06 -1.7,-4.4 -0.49,-2.34 -0.21,-4.72 0.29,-2.37 1.31,-4.53 1.03,-2.16 2.69,-3.88 1.66,-1.72 3.78,-2.82 2.13,-1.1 4.49,-1.46 2.36,-0.36 4.72,0.05 2.35,0.41 4.45,1.55 2.1,1.14 3.73,2.89 1.63,1.76 2.61,3.94 0.97,2.18 1.21,4.56 0.23,2.37 -0.31,4.7 -0.54,2.33 -1.78,4.37 -1.25,2.04 -3.09,3.56 -1.84,1.53 -4.07,2.4 -2.23,0.86 -4.62,0.96 -2.38,0.11 -4.68,-0.55 -2.3,-0.67 -4.26,-2.03 -1.97,-1.36 -3.39,-3.28 -1.43,-1.92 -2.17,-4.19 -0.74,-2.27 -0.72,-4.66 0.03,-2.39 0.81,-4.65 0.79,-2.26 2.26,-4.15 1.46,-1.89 3.45,-3.21 2,-1.32 4.31,-1.93 2.31,-0.62 4.69,-0.47 2.39,0.16 4.6,1.06 2.21,0.91 4.02,2.48 1.8,1.57 1.8,1.56 0,0 0.81,0.04 0.8,0.05 5.01,3.02 4.22,2.97 6.87,8.38 2.64,5.41 2.95,10.68 0.31,5.27 -0.01,10.46 -0.32,5.19 -1.8,9.91 -1.47,4.72 -3.25,8.91 -1.78,4.19 -4.38,8.2 -2.6,4.02 -5.19,7.52 -2.59,3.5 -4.1,7.54 -1.5,4.05 -0.57,8.72 0.94,4.68 3.91,8.43 2.95,3.75 5.67,6.23 2.72,2.48 3.57,3.39 0.86,0.91 1.47,2 0.61,1.09 0.94,2.29 0.33,1.21 0.37,2.46 0.03,1.23 -0.24,2.45 Q 9.78,3.4 9.23,4.53 8.68,5.65 7.87,6.6 7.07,7.56 6.06,8.3 5.06,9.03 3.9,9.51 2.75,9.98 1.51,10.17 0.28,10.35 -0.96,10.23 -2.2,10.12 -3.38,9.71 -4.56,9.29 -5.61,8.61 -6.65,7.93 -6.65,7.93 Z"
           id="path18" />
      </g>
      <g
         stroke-opacity="0.3"
         fill-opacity="0.3"
         transform="translate(181.42282,114.98938)"
         stroke="none"
         id="g24">
        <path
           fill="#1e1e1e"
           d="m -5.2,8.75 q 0,0 -2.43,-1.24 -2.44,-1.23 -6.87,-4.74 -4.44,-3.51 -7.59,-7.68 -3.15,-4.17 -4.83,-8.45 -1.69,-4.27 -1.89,-9.71 -0.2,-5.45 1.39,-10.71 1.58,-5.27 2.85,-10.62 1.27,-5.36 1.9,-9.91 0.63,-4.55 0.97,-9.16 0.34,-4.62 0.57,-9.13 0.22,-4.51 -3.36,-7.1 -3.59,-2.59 -10.24,-10.23 -6.65,-7.65 -6.48,-10.07 0.18,-2.42 1.12,-4.66 0.94,-2.24 2.54,-4.06 1.6,-1.82 3.71,-3.03 2.1,-1.22 4.48,-1.7 2.38,-0.48 4.79,-0.17 2.4,0.31 4.59,1.36 2.18,1.06 3.91,2.76 1.74,1.71 2.83,3.87 1.1,2.17 1.45,4.57 0.35,2.4 -0.09,4.79 -0.43,2.39 -1.61,4.51 -1.17,2.12 -2.97,3.76 -1.79,1.64 -4.01,2.62 -2.22,0.97 -4.64,1.19 -2.41,0.22 -4.78,-0.34 -2.36,-0.57 -4.41,-1.86 -2.06,-1.29 -3.6,-3.16 -1.54,-1.88 -2.39,-4.15 -0.86,-2.27 -0.95,-4.7 -0.08,-2.43 0.61,-4.75 0.69,-2.33 2.09,-4.31 1.4,-1.99 3.36,-3.42 1.96,-1.43 4.27,-2.17 2.31,-0.73 4.74,-0.69 2.43,0.05 4.71,0.87 2.29,0.81 4.19,2.32 1.91,1.5 3.23,3.53 1.33,2.04 1.94,4.39 0.6,2.35 0.6,2.35 0,-0.01 -4,-5.38 -4,-5.38 0.44,-3.88 4.44,1.49 8.26,3.93 3.82,2.45 7.1,5.52 3.28,3.08 5.29,7.73 2,4.64 2.15,10.2 0.15,5.55 -0.26,10.29 -0.42,4.75 -0.94,9.07 -0.53,4.32 -1.49,9.43 -0.96,5.11 -2.02,9.31 -1.06,4.19 -2.75,9.39 -1.68,5.21 -2.99,10.15 -1.31,4.94 1.07,8.81 2.37,3.88 4.6,5.42 2.24,1.54 3.21,2.29 0.97,0.75 1.73,1.71 0.77,0.96 1.28,2.08 0.51,1.11 0.74,2.32 0.23,1.21 0.17,2.42 Q 10.02,1.76 9.67,2.93 9.31,4.11 8.68,5.16 8.05,6.21 7.19,7.09 6.33,7.96 5.29,8.61 4.24,9.25 3.07,9.62 1.9,10 0.68,10.08 -0.54,10.16 -1.74,9.95 -2.95,9.74 -4.08,9.24 -5.2,8.75 -5.2,8.75 Z"
           id="path22" />
      </g>
    </g>
  </g>
</svg>
